# xmcd
#
# Track frame offsets: 
#        150
#        11407
#        21922
#        28465
#        38370
#        48140
#        60895
#        71925
#        89782
#        103995
#        119385
#        131345
#        142022
#
# Disc length: 2017 seconds
#
# Revision: 3
# Processed by: cddbd v1.5.1PL0 Copyright (c) Steve Scherf et al.
# Submitted via: ExactAudioCopy v0.95a5
#
DISCID=b407df0d
DTITLE=Various Artist - White Boy Blues
DYEAR=1987
DGENRE=Blues
TTITLE0=Eric Clapton - Snake Drive
TTITLE1=Eric Clapton - West Coast Idea
TTITLE2=Eric Clapton and Jimmy Page - Choker
TTITLE3=John Mayall and the Bluesbreakers - I'm Your Witchdoctor
TTITLE4=Eric Clapton - Tribute To Elmore
TTITLE5=Eric Clapton and Jimmy Page - Freight Loader
TTITLE6=Eric Clapton and Jimmy Page - Miles Road
TTITLE7=John Mayall and the Bluesbreakers - Telephone Blues
TTITLE8=Eric Clapton and Jimmy Page - Draggin' My Tail
TTITLE9=All Stars and Jimmy Page - Down In the Boots
TTITLE10=All Stars and Jeff Beck - Steelin'
TTITLE11=All Stars and Jeff Beck - Chuckles
TTITLE12=All Stars and Jimmy Page - L. A. Breakdown
EXTD=LABEL =Castle Communications plc\nID =ccscd103\nUPC =027726-71
EXTD=032725\nCOPYRIGHT =1987
EXTT0=
EXTT1=
EXTT2=
EXTT3=
EXTT4=
EXTT5=
EXTT6=
EXTT7=
EXTT8=
EXTT9=
EXTT10=
EXTT11=
EXTT12=
PLAYORDER=
